<svg xmlns="http://www.w3.org/2000/svg" width="22.45" height="22.449" viewBox="0 0 22.45 22.449"><defs><style>.a{fill:#bfbfc0;}</style></defs><path class="a" d="M22.024,7,11.763.163a.975.975,0,0,0-1.077,0L.426,7a.981.981,0,0,0-.426.8v6.84a.981.981,0,0,0,.426.8l10.26,6.841a.975.975,0,0,0,1.077,0l10.26-6.841a.981.981,0,0,0,.426-.8V7.805A.981.981,0,0,0,22.024,7ZM12.189,2.769l7.554,5.036-3.37,2.255L12.189,7.266Zm-1.929,0v4.5L6.076,10.06,2.706,7.805ZM1.929,9.609l2.418,1.616L1.929,12.841ZM10.26,19.681,2.706,14.645l3.37-2.255,4.184,2.794Zm.965-6.176-3.408-2.28,3.408-2.28,3.408,2.28Zm.965,6.176v-4.5l4.184-2.794,3.37,2.255Zm8.331-6.84L18.1,11.225,20.52,9.609Z" transform="translate(0 -0.001)"/></svg>