<svg xmlns="http://www.w3.org/2000/svg" width="24.467" height="24.09" viewBox="0 0 24.467 24.09"><defs><style>.a{fill:#bfbfc0;}</style></defs><path class="a" d="M15.233,3a12.226,12.226,0,0,0-2.965,24.09,1.785,1.785,0,0,1-.094-.594V24.4H10.638A2.129,2.129,0,0,1,8.7,23.376c-.4-.743-.47-1.88-1.463-2.575-.295-.231-.07-.5.269-.46a3.206,3.206,0,0,1,1.636,1.246,1.572,1.572,0,0,0,1.627.784,11.689,11.689,0,0,0,1.724-.123,3.838,3.838,0,0,1,1.619-2c-4.074-.419-6.018-2.446-6.018-5.2a5,5,0,0,1,1.362-3.3C9.171,10.8,8.817,8.841,9.56,8.1a4.258,4.258,0,0,1,3.207,1.51,9.25,9.25,0,0,1,5.95,0A4.255,4.255,0,0,1,21.926,8.1c.746.745.388,2.708.1,3.664a5,5,0,0,1,1.354,3.289c0,2.749-1.941,4.775-6.009,5.2a4.291,4.291,0,0,1,1.936,3.462V26.5a1.794,1.794,0,0,1-.036.273A12.227,12.227,0,0,0,15.233,3Z" transform="translate(-3 -3)"/></svg>