<svg xmlns="http://www.w3.org/2000/svg" width="24.47" height="23.406" viewBox="0 0 24.47 23.406"><defs><style>.a{fill:#bfbfc0;}</style></defs><path class="a" d="M18.956,33.633h-5.32V17.675h5.32ZM16.3,15.547a2.66,2.66,0,1,1,2.659-2.661A2.661,2.661,0,0,1,16.3,15.547ZM38.106,33.633H32.992V25.867c0-1.852-.035-4.234-2.659-4.234-2.663,0-3.073,2.017-3.073,4.1v7.9H22.148V17.663h4.909v2.182h.069a5.409,5.409,0,0,1,4.842-2.579c5.181,0,6.139,3.308,6.139,7.608Z" transform="translate(-13.636 -10.227)"/></svg>